PathFileType	4	(X/Y/Z)	G:\Shared drives\HPL_Drive\Nord Sprinting Study\Kristen_Nord_test\Trimmed_Nord000005.trc
DataRate	CameraRate	NumFrames	NumMarkers	Units	OrigDataRate	OrigDataStartFrame	OrigNumFrames
200.00	200.00	      4	52	mm	200.00	1246	      2491
Frame#	Time	C7			R_Shoulder			L_Shoulder			Sternum			R_humerus			R_elbow_med			R_elbow_lat			R_forearm			R_wrist_radius			R_wrist_ulna			L_humerus			L_elbow_med			L_elbow_lat			L_forearm			L_wrist_radius			L_wrist_ulna			r.ASIS			r.PSIS			r_IC			L.ASIS			L.PSIS			l_IC			r_thigh1			r_thigh2			r_thigh3			r_thigh4			r_thigh5			r_knee			r_mknee			r_shank_antsup			r_sh2			r_sh3			r_sh4			r_ankle			r_mankle			r_calc			r_5meta			r_toe			L_thigh1			L_thigh2			L_thigh3			L_thigh4			L_knee			L_mknee			L_shank_antsup			L_sh2			L_sh3			L_ankle			L_mankle			L_calc			L_5meta			L_toe			
		X1	Y1	Z1	X2	Y2	Z2	X3	Y3	Z3	X4	Y4	Z4	X5	Y5	Z5	X6	Y6	Z6	X7	Y7	Z7	X8	Y8	Z8	X9	Y9	Z9	X10	Y10	Z10	X11	Y11	Z11	X12	Y12	Z12	X13	Y13	Z13	X14	Y14	Z14	X15	Y15	Z15	X16	Y16	Z16	X17	Y17	Z17	X18	Y18	Z18	X19	Y19	Z19	X20	Y20	Z20	X21	Y21	Z21	X22	Y22	Z22	X23	Y23	Z23	X24	Y24	Z24	X25	Y25	Z25	X26	Y26	Z26	X27	Y27	Z27	X28	Y28	Z28	X29	Y29	Z29	X30	Y30	Z30	X31	Y31	Z31	X32	Y32	Z32	X33	Y33	Z33	X34	Y34	Z34	X35	Y35	Z35	X36	Y36	Z36	X37	Y37	Z37	X38	Y38	Z38	X39	Y39	Z39	X40	Y40	Z40	X41	Y41	Z41	X42	Y42	Z42	X43	Y43	Z43	X44	Y44	Z44	X45	Y45	Z45	X46	Y46	Z46	X47	Y47	Z47	X48	Y48	Z48	X49	Y49	Z49	X50	Y50	Z50	X51	Y51	Z51	X52	Y52	Z52	

1246	6.225	1194.26953	637.15833	1224.65894	1311.81506	681.69189	1215.09534	1058.97510	679.17505	1227.47595	1184.58716	754.25653	1150.72644	1486.62695	642.85754	1186.09460	1614.10913	647.95056	1095.56848	1608.01428	591.12878	1151.14343	1604.21899	672.21021	1252.49023	1577.84766	771.59320	1310.95190	1615.16650	750.84918	1333.79285	860.52582	627.29138	1198.59387	749.26984	640.50598	1109.63000	750.12604	582.30341	1162.07117	788.47369	678.94269	1268.84338	828.66370	761.58667	1312.58325	778.78656	746.18335	1335.74377	1306.92700	597.48157	700.07581	1263.18616	474.81845	847.54706	1342.31995	582.41370	808.65308	1069.29285	579.37103	699.37872	1146.61804	467.50940	841.08850	1046.11548	567.86847	797.55310	1379.42407	470.74158	490.84830	1378.97363	424.34885	385.68262	1389.25012	370.25073	378.78940	1387.93176	374.85608	536.57813	1370.72314	328.34872	428.32516	1374.98438	345.12961	304.47754	1250.78125	329.50320	318.73544	1395.94507	214.75609	312.56641	1378.06299	96.44388	325.67245	1394.91150	221.18375	389.37659	1378.65808	107.77763	408.13934	1362.41052	-66.15348	384.55499	1284.64270	-55.71872	354.37991	1304.02625	-85.36286	444.26498	1374.12708	-154.06636	295.95108	1339.82214	-133.42035	240.89301	1003.56006	460.15704	491.25797	1006.77954	403.55576	362.58630	1009.27869	352.59247	543.75635	1017.10785	300.65323	416.19601	999.26990	314.19791	331.21967	1123.25342	314.69949	303.56512	985.50555	201.73140	323.09995	1003.30566	216.01981	411.19754	1020.60358	95.53300	416.44019	1031.36340	-84.67838	396.33798	1098.38574	-62.57161	337.73965	1086.49414	-80.70876	439.21597	1028.98303	-191.64261	301.60767	1058.88391	-169.43324	241.27037	
1247	6.230	1194.20459	637.70844	1224.46277	1311.74170	682.16730	1214.85754	1058.90759	679.63690	1227.28259	1184.52527	754.73834	1150.47046	1486.50500	643.43530	1185.85876	1614.90015	648.04401	1095.07031	1607.85510	591.51825	1150.80798	1604.28503	672.64868	1252.08191	1577.94238	772.01599	1310.61084	1615.12476	751.33441	1333.50989	860.44666	627.77362	1198.41321	749.21515	640.94818	1109.49353	750.06195	582.80670	1161.93372	788.35486	679.44592	1268.71973	828.60785	762.06305	1312.41809	778.70612	746.70038	1335.58032	1306.88110	597.75116	699.93420	1263.14905	475.16992	847.43573	1342.25879	582.73187	808.48010	1069.20947	579.59076	699.23767	1147.11951	467.25565	841.85419	1046.05908	568.17627	797.38934	1379.40601	470.85721	490.78317	1378.97449	424.35074	385.63214	1389.22437	370.29214	378.78171	1387.92358	375.12463	536.82281	1371.29004	329.01352	428.30811	1374.98462	345.13443	304.47482	1251.19250	331.07568	318.25690	1395.91980	214.77266	312.58636	1378.06628	96.44135	325.68112	1394.85864	221.15170	389.40179	1378.59717	107.79707	408.15149	1362.32983	-66.17004	384.54230	1284.59973	-55.71256	354.40997	1303.99756	-85.36598	444.27203	1374.00427	-154.07837	295.92590	1339.73950	-133.37076	240.90417	1003.48883	460.19476	491.16547	1006.74908	403.57681	362.54141	1009.22064	352.75140	543.71503	1017.14716	300.70145	416.17838	999.27667	314.18213	331.22189	1123.27124	314.69925	303.57101	985.50873	201.75830	323.18607	1003.33075	215.98943	411.19116	1020.66046	95.50787	416.46002	1031.32910	-84.66060	396.48624	1098.44104	-62.56744	337.72363	1086.55750	-80.65826	439.24118	1029.08179	-191.70898	301.65140	1059.02222	-169.54886	241.35533	
1248	6.235	1194.11365	638.25201	1224.24341	1311.69250	682.67780	1214.59534	1058.94092	680.23254	1226.67859	1184.45459	755.19751	1150.22705	1486.43042	643.86316	1185.53699	1613.90295	648.63013	1094.94958	1607.79114	591.97491	1150.41577	1604.22913	672.97461	1251.93384	1578.02991	772.47699	1310.29517	1615.26074	751.78931	1333.14185	860.42395	628.27167	1198.23926	748.36316	641.21924	1109.75000	749.94916	583.30646	1161.84778	788.31726	679.94403	1268.57458	828.55511	762.52795	1312.20166	778.59985	747.22864	1335.42261	1306.84338	597.98889	699.76422	1263.14978	475.49664	847.30988	1342.18213	583.03992	808.35010	1069.15942	579.81635	699.06793	1147.27100	467.95483	841.84442	1046.01770	568.43384	797.24072	1379.39856	470.98822	490.69113	1378.94092	424.43509	385.60510	1389.24060	370.35190	378.71561	1387.92383	375.13443	536.52631	1371.27917	329.10114	428.31216	1374.94910	345.12985	304.47382	1250.52039	329.29773	318.82669	1395.90527	214.75394	312.60782	1378.00500	96.47215	325.69577	1394.86340	221.23552	389.38724	1378.53540	107.79520	408.15259	1362.24878	-66.15921	384.57632	1284.55151	-55.66975	354.44162	1303.92224	-85.32545	444.28369	1373.85278	-154.09587	295.88367	1339.58826	-133.33466	240.95886	1003.48242	460.30396	491.13550	1006.75531	403.57950	362.49054	1009.21259	352.83670	543.71490	1017.15594	300.72980	416.19052	999.25800	314.16348	331.21445	1123.27295	314.69046	303.55539	985.53058	201.69077	323.12201	1003.42310	216.18764	411.25198	1020.71680	95.52732	416.47714	1031.52832	-84.67830	396.40875	1098.52563	-62.55771	337.75229	1086.62683	-80.59840	439.29391	1029.18286	-191.77838	301.72012	1059.10754	-169.65004	241.43925	
1249	6.240	1194.02527	638.71552	1224.10083	1311.61584	683.12604	1214.37537	1058.89856	680.76019	1226.45972	1184.40820	755.65436	1149.97729	1486.21570	644.12738	1185.49072	1613.76111	649.01074	1094.64001	1607.63269	592.26691	1150.25037	1604.24609	673.40100	1251.59900	1578.15723	772.92603	1309.95837	1615.36609	752.23206	1332.78931	860.51770	628.73584	1198.04272	748.30243	641.68408	1109.57422	749.91931	583.76172	1161.64429	788.25000	680.37469	1268.42065	828.49487	762.97974	1312.02075	778.57397	747.69733	1335.23499	1306.79102	598.24042	699.64386	1263.13025	475.85599	847.23438	1342.14587	583.34802	808.15692	1069.10938	580.03052	698.92291	1147.20984	468.27893	841.75616	1045.98071	568.72095	797.08112	1379.37280	471.13635	490.61591	1378.91895	424.52231	385.60022	1389.19800	370.41107	378.71371	1387.88159	375.32516	536.51422	1371.37622	329.30682	428.20786	1374.93848	345.15335	304.44357	1250.52136	329.31317	318.83139	1395.69678	214.87128	312.77460	1377.96277	96.49210	325.70627	1394.87573	221.24771	389.40189	1378.51416	107.81511	408.21167	1362.25073	-66.14256	384.51233	1284.51050	-55.62980	354.41376	1303.89050	-85.29797	444.27582	1373.69946	-154.12698	295.90787	1339.53943	-133.34691	240.86345	1003.50293	460.41202	491.01978	1006.61914	403.35413	362.31790	1009.19855	352.86996	543.68427	1017.15533	300.76608	416.18576	999.27472	314.16779	331.20709	1123.28198	314.71097	303.57092	985.57056	201.71040	323.12332	1003.35602	215.96248	411.20444	1020.73895	95.48095	416.46750	1031.50659	-84.64149	396.51410	1098.60608	-62.54921	337.75067	1086.78357	-80.50808	439.21948	1029.34741	-191.84201	301.80508	1058.46826	-169.13580	242.25374	
